# xmcd
#
# Track frame offsets: 
#        150
#        17403
#        31468
#        51607
#        69571
#        87162
#        106326
#        127854
#        144394
#        165507
#        195921
#        216059
#        239686
#
# Disc length: 3805 seconds
#
# Revision: 1
# Processed by: cddbd v1.5.2PL0 Copyright (c) Steve Scherf et al.
# Submitted via: ExactAudioCopy v1.0b1
#
DISCID=ac0edb0d
DTITLE=웅산 - Yesterday
DYEAR=2007
DGENRE=Jazz
TTITLE0=아무말 말아요 (feat.전재덕)
TTITLE1=I sing the blues (feat.이주한)
TTITLE2=Yesterday
TTITLE3=Angel eyes
TTITLE4=미워하고 그리워하며
TTITLE5=거미줄
TTITLE6=The look of love
TTITLE7=Comes love (feat.이주한)
TTITLE8=Loving u was like party
TTITLE9=Blame it on my youth
TTITLE10=파란새벽(胡蝶夢)
TTITLE11=사랑이 널 놓아준다
TTITLE12=All night long
EXTD=YEAR: 2007
EXTT0=
EXTT1=
EXTT2=
EXTT3=
EXTT4=
EXTT5=
EXTT6=
EXTT7=
EXTT8=
EXTT9=
EXTT10=
EXTT11=
EXTT12=
PLAYORDER=
